<svg xmlns="http://www.w3.org/2000/svg" width="36.471" height="42.815" viewBox="0 0 36.471 42.815">
  <path id="Icon_zocial-android" data-name="Icon zocial-android" d="M1.194,24.074V13.41a2.375,2.375,0,0,1,.753-1.764,2.424,2.424,0,0,1,1.744-.733,2.4,2.4,0,0,1,1.764.733,2.4,2.4,0,0,1,.733,1.764V24.074a2.408,2.408,0,0,1-.733,1.764,2.4,2.4,0,0,1-1.764.733,2.4,2.4,0,0,1-1.764-.733A2.4,2.4,0,0,1,1.194,24.074Zm6.858,3.964V11.467H30.807V28.038a2.5,2.5,0,0,1-2.5,2.5H10.548a2.5,2.5,0,0,1-2.5-2.5Zm0-18.434H30.807a9.486,9.486,0,0,0-3.371-7.492A11.788,11.788,0,0,0,19.429-.822,11.8,11.8,0,0,0,11.42,2.112,9.492,9.492,0,0,0,8.052,9.6Zm4-12.527c0-.212.093-.317.277-.317a.632.632,0,0,1,.277.079L14.553.367l-.595.317Q12.054-2.8,12.056-2.923Zm.595,31.992a2.357,2.357,0,0,1,.753-1.784,2.605,2.605,0,0,1,1.863-.714,2.576,2.576,0,0,1,2.5,2.5v8.008a2.34,2.34,0,0,1-.753,1.8,2.649,2.649,0,0,1-1.863.694,2.5,2.5,0,0,1-2.5-2.5V29.069Zm.2-24.578a1.459,1.459,0,0,1,.476-1.09,1.556,1.556,0,0,1,1.11-.456A1.557,1.557,0,0,1,15.98,4.49a1.557,1.557,0,0,1-1.586,1.586A1.459,1.459,0,0,1,13.3,5.6,1.551,1.551,0,0,1,12.849,4.49Zm8.246,24.578a2.326,2.326,0,0,1,.772-1.784,2.625,2.625,0,0,1,1.843-.714,2.5,2.5,0,0,1,2.5,2.5v8.008a2.339,2.339,0,0,1-.752,1.8,2.647,2.647,0,0,1-1.863.694,2.5,2.5,0,0,1-2.5-2.5ZM22.877,4.49a1.456,1.456,0,0,1,.477-1.09,1.556,1.556,0,0,1,1.11-.456A1.557,1.557,0,0,1,26.01,4.49a1.5,1.5,0,0,1-.476,1.13,1.551,1.551,0,0,1-1.11.456,1.458,1.458,0,0,1-1.09-.476A1.558,1.558,0,0,1,22.877,4.49ZM24.305.367c.053-.079.237-.456.554-1.13a17.453,17.453,0,0,1,.932-1.744c.3-.489.549-.733.735-.733s.277.119.277.357V-2.8L24.9.724ZM32.67,24.074V13.45a2.468,2.468,0,0,1,.733-1.784,2.442,2.442,0,0,1,3.528,0,2.468,2.468,0,0,1,.733,1.784V24.074a2.5,2.5,0,0,1-2.5,2.5,2.463,2.463,0,0,1-1.783-.733A2.236,2.236,0,0,1,32.67,24.074Z" transform="translate(-1.194 3.24)" fill="#fff"/>
</svg>
