<svg xmlns="http://www.w3.org/2000/svg" width="36.523" height="43.463" viewBox="0 0 36.523 43.463">
  <path id="Icon_awesome-apple" data-name="Icon awesome-apple" d="M30.817,25.218c-.019-3.561,1.591-6.249,4.852-8.228a10.425,10.425,0,0,0-8.219-4.328c-3.445-.272-7.21,2.009-8.587,2.009-1.455,0-4.793-1.912-7.413-1.912C6.035,12.846.281,17.077.281,25.683a24.184,24.184,0,0,0,1.4,7.879C2.921,37.123,7.4,45.856,12.08,45.711c2.445-.058,4.172-1.737,7.355-1.737,3.086,0,4.687,1.737,7.413,1.737,4.716-.068,8.772-8.005,9.956-11.576-6.327-2.979-5.987-8.733-5.987-8.917ZM25.325,9.285A9.139,9.139,0,0,0,27.654,2.25a10.289,10.289,0,0,0-6.589,3.386,9.282,9.282,0,0,0-2.484,6.977c2.533.194,4.842-1.106,6.744-3.328Z" transform="translate(-0.281 -2.25)" fill="#fff"/>
</svg>
